<svg width="259" height="93" viewBox="0 0 259 93" fill="none" xmlns="http://www.w3.org/2000/svg">
<path d="M28.08 9.71H19.37V92H9.23V9.71H0.39V1.12999H28.08V9.71ZM57.0375 1.12999V92H46.8975V50.4H40.6575V92H30.5175V1.12999H40.6575V42.86H46.8975V1.12999H57.0375ZM71.3802 9.71V42.73H80.2202V50.4H71.3802V83.42H83.4702V92H61.2402V1.12999H82.6902V9.71H71.3802ZM120.093 92L109.303 32.59H109.043V92H100.593V1.12999H112.033L122.173 59.37V1.12999H131.403V92H120.093ZM145.521 9.71V42.73H154.361V50.4H145.521V92H135.381V1.12999H156.831V9.71H145.521ZM186.01 9.71H177.3V92H167.16V9.71H158.32V1.12999H186.01V9.71ZM197.937 27.65V92H188.447V27.65H197.937ZM197.937 11.14V22.84H188.447V11.14H197.937ZM218.033 37.66V14.91C218.033 12.6567 217.773 11.0967 217.253 10.23C216.733 9.36333 215.997 8.92999 215.043 8.92999H214.523C213.57 8.92999 212.833 9.40666 212.313 10.36C211.793 11.2267 211.533 12.7867 211.533 15.04V25.96C211.533 30.2067 212.4 33.8467 214.133 36.88C215.867 39.9133 217.773 42.86 219.853 45.72C221.933 48.4933 223.84 51.44 225.573 54.56C227.307 57.5933 228.173 61.2767 228.173 65.61V79.65C228.173 81.99 227.827 83.9833 227.133 85.63C226.44 87.2767 225.53 88.62 224.403 89.66C223.277 90.7 221.977 91.48 220.503 92C219.03 92.52 217.513 92.78 215.953 92.78H214.003C212.443 92.78 210.927 92.52 209.453 92C207.98 91.5667 206.637 90.83 205.423 89.79C204.21 88.6633 203.213 87.2767 202.433 85.63C201.74 83.9833 201.393 81.99 201.393 79.65V55.34H210.623V78.09C210.623 80.3433 210.97 81.9467 211.663 82.9C212.357 83.7667 213.18 84.2 214.133 84.2H214.653C215.607 84.2 216.387 83.7667 216.993 82.9C217.687 81.9467 218.033 80.3433 218.033 78.09V67.17C218.033 62.9233 217.167 59.2833 215.433 56.25C213.7 53.2167 211.793 50.3133 209.713 47.54C207.633 44.68 205.727 41.7333 203.993 38.7C202.26 35.58 201.393 31.8533 201.393 27.52V13.48C201.393 11.14 201.74 9.14666 202.433 7.5C203.213 5.85333 204.167 4.51 205.293 3.46999C206.507 2.43 207.85 1.65 209.323 1.12999C210.797 0.609994 212.27 0.349994 213.743 0.349994H215.043C216.603 0.349994 218.077 0.609994 219.463 1.12999C220.937 1.65 222.237 2.43 223.363 3.46999C224.577 4.51 225.53 5.85333 226.223 7.5C226.917 9.14666 227.263 11.14 227.263 13.48V37.66H218.033ZM258.246 9.71H249.536V92H239.396V9.71H230.556V1.12999H258.246V9.71Z" fill="white"/>
</svg>
