<svg width="1226" height="437" viewBox="0 0 1226 437" fill="none" xmlns="http://www.w3.org/2000/svg">
<g clip-path="url(#clip0_217_718)">
<rect x="1.5" y="1.5" width="1223" height="434" rx="18.5" fill="#C4C4C4"/>
<rect x="1.5" y="1.5" width="1223" height="434" rx="18.5" fill="url(#paint0_radial_217_718)" fill-opacity="0.5"/>
<rect x="1.5" y="1.5" width="1223" height="434" rx="18.5" stroke="#B6FF01" stroke-width="3"/>
<path d="M151.496 539.784L-0.000732422 539.784L-0.000733441 411.591L151.496 411.591L151.496 539.784Z" stroke="#B6FF01" stroke-width="2.50598" stroke-miterlimit="10"/>
<path d="M245.139 460.546L151.496 460.546L151.496 411.579L245.139 411.579L245.139 460.546Z" stroke="#B6FF01" stroke-width="2.50598" stroke-miterlimit="10"/>
<path d="M151.496 411.591L-0.000732422 539.784" stroke="#B6FF01" stroke-width="2.50598" stroke-miterlimit="10"/>
<path d="M151.496 411.479L-0.000488281 411.479L-0.0004893 283.286L151.496 283.286L151.496 411.479Z" stroke="#B6FF01" stroke-width="2.50598" stroke-miterlimit="10"/>
<path d="M245.139 411.479L151.496 411.479L151.496 332.24L245.139 332.24L245.139 411.479Z" stroke="#B6FF01" stroke-width="2.50598" stroke-miterlimit="10"/>
<path d="M245.139 332.24L151.496 332.24L151.496 283.273L245.139 283.273L245.139 332.24Z" stroke="#B6FF01" stroke-width="2.50598" stroke-miterlimit="10"/>
<path d="M151.496 283.286L-0.000488281 411.479" stroke="#B6FF01" stroke-width="2.50598" stroke-miterlimit="10"/>
<path d="M151.496 283.171L-0.000488281 283.171L-0.0004893 154.978L151.496 154.978L151.496 283.171Z" stroke="#B6FF01" stroke-width="2.50598" stroke-miterlimit="10"/>
<path d="M245.139 283.172L151.496 283.172L151.496 203.933L245.139 203.933L245.139 283.172Z" stroke="#B6FF01" stroke-width="2.50598" stroke-miterlimit="10"/>
<path d="M245.139 203.933L151.496 203.933L151.496 154.965L245.139 154.965L245.139 203.933Z" stroke="#B6FF01" stroke-width="2.50598" stroke-miterlimit="10"/>
<path d="M151.496 154.978L-0.000488281 283.171" stroke="#B6FF01" stroke-width="2.50598" stroke-miterlimit="10"/>
<path d="M151.496 154.865L-0.000488281 154.865L-0.0004893 26.6725L151.496 26.6725L151.496 154.865Z" stroke="#B6FF01" stroke-width="2.50598" stroke-miterlimit="10"/>
<path d="M245.139 154.866L151.496 154.866L151.496 75.6273L245.139 75.6273L245.139 154.866Z" stroke="#B6FF01" stroke-width="2.50598" stroke-miterlimit="10"/>
<path d="M245.139 75.627L151.496 75.627L151.496 26.6597L245.139 26.6597L245.139 75.627Z" stroke="#B6FF01" stroke-width="2.50598" stroke-miterlimit="10"/>
<path d="M151.496 26.6725L-0.000488281 154.865" stroke="#B6FF01" stroke-width="2.50598" stroke-miterlimit="10"/>
<path d="M151.496 26.5591L-0.000488281 26.5591L-0.0004893 -101.634L151.496 -101.634L151.496 26.5591Z" stroke="#B6FF01" stroke-width="2.50598" stroke-miterlimit="10"/>
<path d="M245.139 26.5591L151.496 26.5591L151.496 -52.6798L245.139 -52.6798L245.139 26.5591Z" stroke="#B6FF01" stroke-width="2.50598" stroke-miterlimit="10"/>
<path d="M151.496 -101.634L-0.000488281 26.5591" stroke="#B6FF01" stroke-width="2.50598" stroke-miterlimit="10"/>
<path d="M396.711 539.785L245.215 539.785L245.215 411.592L396.711 411.592L396.711 539.785Z" stroke="#B6FF01" stroke-width="2.50598" stroke-miterlimit="10"/>
<path d="M490.355 460.546L396.711 460.546L396.711 411.579L490.355 411.579L490.355 460.546Z" stroke="#B6FF01" stroke-width="2.50598" stroke-miterlimit="10"/>
<path d="M396.711 411.592L245.215 539.785" stroke="#B6FF01" stroke-width="2.50598" stroke-miterlimit="10"/>
<path d="M396.711 411.479L245.215 411.479L245.215 283.286L396.711 283.286L396.711 411.479Z" stroke="#B6FF01" stroke-width="2.50598" stroke-miterlimit="10"/>
<path d="M490.355 411.479L396.711 411.479L396.711 332.24L490.355 332.24L490.355 411.479Z" stroke="#B6FF01" stroke-width="2.50598" stroke-miterlimit="10"/>
<path d="M490.355 332.24L396.711 332.24L396.711 283.273L490.355 283.273L490.355 332.24Z" stroke="#B6FF01" stroke-width="2.50598" stroke-miterlimit="10"/>
<path d="M396.711 283.286L245.215 411.479" stroke="#B6FF01" stroke-width="2.50598" stroke-miterlimit="10"/>
<path d="M396.711 283.171L245.215 283.171L245.215 154.978L396.711 154.978L396.711 283.171Z" stroke="#B6FF01" stroke-width="2.50598" stroke-miterlimit="10"/>
<path d="M490.355 283.172L396.711 283.172L396.711 203.933L490.355 203.933L490.355 283.172Z" stroke="#B6FF01" stroke-width="2.50598" stroke-miterlimit="10"/>
<path d="M490.355 203.933L396.711 203.933L396.711 154.965L490.355 154.965L490.355 203.933Z" stroke="#B6FF01" stroke-width="2.50598" stroke-miterlimit="10"/>
<path d="M396.711 154.978L245.215 283.171" stroke="#B6FF01" stroke-width="2.50598" stroke-miterlimit="10"/>
<path d="M396.711 154.865L245.215 154.865L245.215 26.6725L396.711 26.6725L396.711 154.865Z" stroke="#B6FF01" stroke-width="2.50598" stroke-miterlimit="10"/>
<path d="M490.355 154.866L396.711 154.866L396.711 75.6273L490.355 75.6273L490.355 154.866Z" stroke="#B6FF01" stroke-width="2.50598" stroke-miterlimit="10"/>
<path d="M490.355 75.627L396.711 75.627L396.711 26.6597L490.355 26.6597L490.355 75.627Z" stroke="#B6FF01" stroke-width="2.50598" stroke-miterlimit="10"/>
<path d="M396.711 26.6725L245.215 154.865" stroke="#B6FF01" stroke-width="2.50598" stroke-miterlimit="10"/>
<path d="M396.711 26.5586L245.215 26.5586L245.215 -101.634L396.711 -101.634L396.711 26.5586Z" stroke="#B6FF01" stroke-width="2.50598" stroke-miterlimit="10"/>
<path d="M490.355 26.5591L396.711 26.5591L396.711 -52.6798L490.355 -52.6798L490.355 26.5591Z" stroke="#B6FF01" stroke-width="2.50598" stroke-miterlimit="10"/>
<path d="M396.711 -101.634L245.215 26.5586" stroke="#B6FF01" stroke-width="2.50598" stroke-miterlimit="10"/>
<path d="M641.926 539.785L490.43 539.785L490.43 411.592L641.926 411.592L641.926 539.785Z" stroke="#B6FF01" stroke-width="2.50598" stroke-miterlimit="10"/>
<path d="M735.57 460.546L641.926 460.546L641.926 411.579L735.57 411.579L735.57 460.546Z" stroke="#B6FF01" stroke-width="2.50598" stroke-miterlimit="10"/>
<path d="M641.926 411.592L490.43 539.785" stroke="#B6FF01" stroke-width="2.50598" stroke-miterlimit="10"/>
<path d="M641.926 411.479L490.43 411.479L490.43 283.286L641.926 283.286L641.926 411.479Z" stroke="#B6FF01" stroke-width="2.50598" stroke-miterlimit="10"/>
<path d="M735.57 411.479L641.927 411.479L641.927 332.24L735.57 332.24L735.57 411.479Z" stroke="#B6FF01" stroke-width="2.50598" stroke-miterlimit="10"/>
<path d="M735.57 332.24L641.927 332.24L641.927 283.273L735.57 283.273L735.57 332.24Z" stroke="#B6FF01" stroke-width="2.50598" stroke-miterlimit="10"/>
<path d="M641.926 283.286L490.43 411.479" stroke="#B6FF01" stroke-width="2.50598" stroke-miterlimit="10"/>
<path d="M641.927 283.171L490.43 283.171L490.43 154.978L641.927 154.978L641.927 283.171Z" stroke="#B6FF01" stroke-width="2.50598" stroke-miterlimit="10"/>
<path d="M735.57 283.172L641.927 283.172L641.927 203.933L735.57 203.933L735.57 283.172Z" stroke="#B6FF01" stroke-width="2.50598" stroke-miterlimit="10"/>
<path d="M735.57 203.933L641.927 203.933L641.927 154.965L735.57 154.965L735.57 203.933Z" stroke="#B6FF01" stroke-width="2.50598" stroke-miterlimit="10"/>
<path d="M641.927 154.978L490.43 283.171" stroke="#B6FF01" stroke-width="2.50598" stroke-miterlimit="10"/>
<path d="M641.926 154.865L490.43 154.865L490.43 26.6725L641.926 26.6725L641.926 154.865Z" stroke="#B6FF01" stroke-width="2.50598" stroke-miterlimit="10"/>
<path d="M735.57 154.866L641.927 154.866L641.927 75.6273L735.57 75.6274L735.57 154.866Z" stroke="#B6FF01" stroke-width="2.50598" stroke-miterlimit="10"/>
<path d="M735.57 75.627L641.927 75.627L641.927 26.6597L735.57 26.6597L735.57 75.627Z" stroke="#B6FF01" stroke-width="2.50598" stroke-miterlimit="10"/>
<path d="M641.926 26.6725L490.43 154.865" stroke="#B6FF01" stroke-width="2.50598" stroke-miterlimit="10"/>
<path d="M641.926 26.5586L490.43 26.5586L490.43 -101.634L641.926 -101.634L641.926 26.5586Z" stroke="#B6FF01" stroke-width="2.50598" stroke-miterlimit="10"/>
<path d="M735.57 26.5591L641.927 26.5591L641.927 -52.6798L735.57 -52.6798L735.57 26.5591Z" stroke="#B6FF01" stroke-width="2.50598" stroke-miterlimit="10"/>
<path d="M641.926 -101.634L490.43 26.5586" stroke="#B6FF01" stroke-width="2.50598" stroke-miterlimit="10"/>
<path d="M887.141 539.785L735.645 539.785L735.645 411.592L887.141 411.592L887.141 539.785Z" stroke="#B6FF01" stroke-width="2.50598" stroke-miterlimit="10"/>
<path d="M980.785 460.546L887.141 460.546L887.141 411.579L980.785 411.579L980.785 460.546Z" stroke="#B6FF01" stroke-width="2.50598" stroke-miterlimit="10"/>
<path d="M887.141 411.592L735.645 539.785" stroke="#B6FF01" stroke-width="2.50598" stroke-miterlimit="10"/>
<path d="M887.141 411.479L735.645 411.479L735.645 283.286L887.141 283.286L887.141 411.479Z" stroke="#B6FF01" stroke-width="2.50598" stroke-miterlimit="10"/>
<path d="M980.785 411.479L887.141 411.479L887.141 332.24L980.785 332.24L980.785 411.479Z" stroke="#B6FF01" stroke-width="2.50598" stroke-miterlimit="10"/>
<path d="M980.785 332.24L887.141 332.24L887.141 283.273L980.785 283.273L980.785 332.24Z" stroke="#B6FF01" stroke-width="2.50598" stroke-miterlimit="10"/>
<path d="M887.141 283.286L735.645 411.479" stroke="#B6FF01" stroke-width="2.50598" stroke-miterlimit="10"/>
<path d="M887.141 283.171L735.645 283.171L735.645 154.978L887.141 154.978L887.141 283.171Z" stroke="#B6FF01" stroke-width="2.50598" stroke-miterlimit="10"/>
<path d="M980.785 283.172L887.141 283.172L887.141 203.933L980.785 203.933L980.785 283.172Z" stroke="#B6FF01" stroke-width="2.50598" stroke-miterlimit="10"/>
<path d="M980.785 203.933L887.141 203.933L887.141 154.965L980.785 154.965L980.785 203.933Z" stroke="#B6FF01" stroke-width="2.50598" stroke-miterlimit="10"/>
<path d="M887.141 154.978L735.645 283.171" stroke="#B6FF01" stroke-width="2.50598" stroke-miterlimit="10"/>
<path d="M887.141 154.865L735.645 154.865L735.645 26.6725L887.141 26.6725L887.141 154.865Z" stroke="#B6FF01" stroke-width="2.50598" stroke-miterlimit="10"/>
<path d="M980.785 154.866L887.141 154.866L887.141 75.6273L980.785 75.6273L980.785 154.866Z" stroke="#B6FF01" stroke-width="2.50598" stroke-miterlimit="10"/>
<path d="M980.785 75.627L887.141 75.627L887.141 26.6597L980.785 26.6597L980.785 75.627Z" stroke="#B6FF01" stroke-width="2.50598" stroke-miterlimit="10"/>
<path d="M887.141 26.6725L735.645 154.865" stroke="#B6FF01" stroke-width="2.50598" stroke-miterlimit="10"/>
<path d="M887.141 26.5586L735.645 26.5586L735.645 -101.634L887.141 -101.634L887.141 26.5586Z" stroke="#B6FF01" stroke-width="2.50598" stroke-miterlimit="10"/>
<path d="M980.785 26.5591L887.141 26.5591L887.141 -52.6798L980.785 -52.6798L980.785 26.5591Z" stroke="#B6FF01" stroke-width="2.50598" stroke-miterlimit="10"/>
<path d="M887.141 -101.634L735.645 26.5586" stroke="#B6FF01" stroke-width="2.50598" stroke-miterlimit="10"/>
<path d="M1132.36 539.785L980.86 539.785L980.86 411.592L1132.36 411.592L1132.36 539.785Z" stroke="#B6FF01" stroke-width="2.50598" stroke-miterlimit="10"/>
<path d="M1226 460.546L1132.36 460.546L1132.36 411.579L1226 411.579L1226 460.546Z" stroke="#B6FF01" stroke-width="2.50598" stroke-miterlimit="10"/>
<path d="M1132.36 411.592L980.86 539.785" stroke="#B6FF01" stroke-width="2.50598" stroke-miterlimit="10"/>
<path d="M1132.36 411.479L980.86 411.479L980.86 283.286L1132.36 283.286L1132.36 411.479Z" stroke="#B6FF01" stroke-width="2.50598" stroke-miterlimit="10"/>
<path d="M1226 411.479L1132.36 411.479L1132.36 332.24L1226 332.24L1226 411.479Z" stroke="#B6FF01" stroke-width="2.50598" stroke-miterlimit="10"/>
<path d="M1226 332.24L1132.36 332.24L1132.36 283.273L1226 283.273L1226 332.24Z" stroke="#B6FF01" stroke-width="2.50598" stroke-miterlimit="10"/>
<path d="M1132.36 283.286L980.86 411.479" stroke="#B6FF01" stroke-width="2.50598" stroke-miterlimit="10"/>
<path d="M1132.36 283.171L980.86 283.171L980.86 154.978L1132.36 154.978L1132.36 283.171Z" stroke="#B6FF01" stroke-width="2.50598" stroke-miterlimit="10"/>
<path d="M1226 283.172L1132.36 283.172L1132.36 203.933L1226 203.933L1226 283.172Z" stroke="#B6FF01" stroke-width="2.50598" stroke-miterlimit="10"/>
<path d="M1226 203.933L1132.36 203.933L1132.36 154.965L1226 154.965L1226 203.933Z" stroke="#B6FF01" stroke-width="2.50598" stroke-miterlimit="10"/>
<path d="M1132.36 154.978L980.86 283.171" stroke="#B6FF01" stroke-width="2.50598" stroke-miterlimit="10"/>
<path d="M1132.36 154.865L980.86 154.865L980.86 26.6725L1132.36 26.6725L1132.36 154.865Z" stroke="#B6FF01" stroke-width="2.50598" stroke-miterlimit="10"/>
<path d="M1226 154.866L1132.36 154.866L1132.36 75.6273L1226 75.6274L1226 154.866Z" stroke="#B6FF01" stroke-width="2.50598" stroke-miterlimit="10"/>
<path d="M1226 75.627L1132.36 75.627L1132.36 26.6597L1226 26.6597L1226 75.627Z" stroke="#B6FF01" stroke-width="2.50598" stroke-miterlimit="10"/>
<path d="M1132.36 26.6725L980.86 154.865" stroke="#B6FF01" stroke-width="2.50598" stroke-miterlimit="10"/>
<path d="M1132.36 26.5576L980.86 26.5576L980.86 -101.635L1132.36 -101.635L1132.36 26.5576Z" stroke="#B6FF01" stroke-width="2.50598" stroke-miterlimit="10"/>
<path d="M1226 26.5591L1132.36 26.5591L1132.36 -52.6798L1226 -52.6798L1226 26.5591Z" stroke="#B6FF01" stroke-width="2.50598" stroke-miterlimit="10"/>
<path d="M1132.36 -101.635L980.86 26.5576" stroke="#B6FF01" stroke-width="2.50598" stroke-miterlimit="10"/>
</g>
<defs>
<radialGradient id="paint0_radial_217_718" cx="0" cy="0" r="1" gradientUnits="userSpaceOnUse" gradientTransform="translate(613 218.5) rotate(90) scale(246.5 691.554)">
<stop stop-color="white"/>
<stop offset="1" stop-color="white" stop-opacity="0"/>
</radialGradient>
<clipPath id="clip0_217_718">
<rect width="1226" height="437" rx="20" fill="white"/>
</clipPath>
</defs>
</svg>
